<?xml version="1.0" standalone="no"?><!DOCTYPE svg PUBLIC "-//W3C//DTD SVG 1.1//EN" "http://www.w3.org/Graphics/SVG/1.1/DTD/svg11.dtd"><svg t="1512145505264" class="icon" style="" viewBox="0 0 1024 1024" version="1.1" xmlns="http://www.w3.org/2000/svg" p-id="2564" xmlns:xlink="http://www.w3.org/1999/xlink" width="48" height="48"><defs><style type="text/css"></style></defs><path d="M351.952 337.982v358.843l284.651-185.601-284.651-173.241z" p-id="2565" fill="#ffffff"></path><path d="M636.574 337.982v334.121h49.523v-334.121h-49.523z" p-id="2566" fill="#ffffff"></path><path d="M512 994.423c-266.014 0-482.423-216.435-482.423-482.423 0-266.014 216.41-482.423 482.423-482.423 265.987 0 482.423 216.41 482.423 482.423 0 265.987-216.435 482.423-482.423 482.423zM512 97.28c-228.637 0-414.72 186.031-414.72 414.72s186.031 414.773 414.72 414.773 414.748-186.139 414.748-414.773-186.058-414.72-414.748-414.72z" p-id="2567" fill="#ffffff"></path></svg>