<?xml version="1.0" standalone="no"?><!DOCTYPE svg PUBLIC "-//W3C//DTD SVG 1.1//EN" "http://www.w3.org/Graphics/SVG/1.1/DTD/svg11.dtd"><svg t="1512145521850" class="icon" style="" viewBox="0 0 1024 1024" version="1.1" xmlns="http://www.w3.org/2000/svg" p-id="2812" xmlns:xlink="http://www.w3.org/1999/xlink" width="48" height="48"><defs><style type="text/css"></style></defs><path d="M672.0480000000002 686.0179999999998l-1.1368683772161603e-13-358.843-284.65099999999995 185.60100000000006 284.65100000000007 173.24099999999993z" p-id="2813" fill="#ffffff"></path><path d="M387.42600000000004 686.018l-8.526512829121202e-14-334.121-49.523 2.1316282072803006e-14 8.526512829121202e-14 334.121 49.523-2.1316282072803006e-14z" p-id="2814" fill="#ffffff"></path><path d="M511.9999999999999 29.576999999999998c266.014-1.1368683772161603e-13 482.423 216.43499999999983 482.4230000000001 482.42299999999983 1.1368683772161603e-13 266.014-216.40999999999988 482.4230000000001-482.42299999999983 482.4230000000001-265.987 8.526512829121202e-14-482.4230000000001-216.40999999999988-482.4230000000001-482.42299999999983-8.526512829121202e-14-265.987 216.43499999999983-482.423 482.42299999999983-482.4230000000001zM512 926.72c228.637-7.105427357601002e-14 414.71999999999997-186.03100000000006 414.7199999999999-414.7200000000001s-186.03100000000012-414.77299999999997-414.7200000000002-414.7729999999999-414.74799999999993 186.13900000000012-414.7479999999999 414.77300000000014 186.0580000000001 414.71999999999997 414.74800000000005 414.71999999999986z" p-id="2815" fill="#ffffff"></path></svg>